<svg xmlns="http://www.w3.org/2000/svg" fill="none" viewBox="0 0 24 24" id="Meta--Streamline-Svg-Logos" height="24" width="24">
  <desc>
    Meta Streamline Icon: https://streamlinehq.com
  </desc>
  <path fill="#ff385c" d="M7.0204 13.54595c-0.033075 -0.0928 -0.0717 -0.182575 -0.10845 -0.265775 -0.056575 -0.127975 -0.11585 -0.256175 -0.17315 -0.3801l-0.00455 -0.00985c-0.511225 -1.10705 -1.059925 -2.22925 -1.630825 -3.335375l-0.02425 -0.046975c-0.058225 -0.11295 -0.11845 -0.22975 -0.180225 -0.3445 -0.073275 -0.145225 -0.162175 -0.28205 -0.26515 -0.408075 -0.1159 -0.138275 -0.2608 -0.249475 -0.42445 -0.325775 -0.16365 -0.0763 -0.342075 -0.1158 -0.5227 -0.1158 -0.180625 0 -0.35905 0.0396 -0.5227 0.115925 -0.163625 0.07635 -0.3085 0.1876 -0.42435 0.3259 -0.10285 0.126025 -0.1917 0.262825 -0.2649975 0.408 -0.062325 0.115775 -0.1230925 0.23365 -0.1818525 0.34765l-0.022505 0.043625c-0.5709375 1.106225 -1.119635 2.228425 -1.6308475 3.335375l-0.00745 0.0161c-0.056325 0.121925 -0.1145625 0.248 -0.1702 0.373825 -0.0367675 0.083125 -0.0753525 0.17285 -0.10845 0.265875 -0.094795 0.25345 -0.12500125 0.52645 -0.087905 0.794425 0.03934 0.270825 0.14888 0.526725 0.3177675 0.7423 0.16889 0.215575 0.3912725 0.383375 0.6451175 0.486775 0.191735 0.077575 0.396745 0.117225 0.6036325 0.116775 0.0649875 0 0.1299225 -0.0038 0.194475 -0.011325 0.261665 -0.033325 0.514015 -0.118475 0.74229 -0.250425 0.299425 -0.168225 0.595125 -0.414725 0.91815 -0.767 0.323025 0.352275 0.61875 0.598775 0.918175 0.767 0.228225 0.131975 0.4806 0.2171 0.742275 0.250425 0.06455 0.007525 0.1295 0.011325 0.194475 0.011325 0.206875 0.00045 0.41185 -0.0392 0.6036 -0.116775 0.25385 -0.1034 0.476225 -0.2712 0.645125 -0.486775 0.168925 -0.215575 0.278475 -0.47145 0.317825 -0.7423 0.03705 -0.268 0.006825 -0.541 -0.0879 -0.794475ZM3.686825 13.93c-0.3999 -0.5069 -0.6565 -0.9776 -0.746525 -1.372225 -0.0369 -0.147875 -0.0456 -0.301325 -0.025675 -0.452425 0.015725 -0.11075 0.056425 -0.2165 0.119 -0.3093 0.077 -0.09985 0.17595 -0.180725 0.2892 -0.23635 0.113275 -0.055625 0.237825 -0.08455 0.36405 -0.08455 0.12625 0 0.250775 0.02895 0.36405 0.0846 0.11325 0.05565 0.212175 0.136525 0.289175 0.236375 0.062575 0.09285 0.103275 0.1986 0.119 0.309375 0.019875 0.15115 0.01115 0.304675 -0.0258 0.452575 -0.090125 0.394575 -0.346675 0.86515 -0.746475 1.371925Zm2.9544 0.3437c-0.027525 0.189375 -0.104125 0.3683 -0.2222 0.519025 -0.1181 0.15075 -0.2736 0.268075 -0.451075 0.340375 -0.179475 0.0719 -0.37425 0.097375 -0.566225 0.074075 -0.19955 -0.025725 -0.39185 -0.091375 -0.565325 -0.1931 -0.266525 -0.149725 -0.536325 -0.3796 -0.8399 -0.7168 0.4833 -0.595925 0.785075 -1.1452 0.896825 -1.63445 0.0503 -0.205725 0.0612 -0.4191 0.03215 -0.62885 -0.026375 -0.1807 -0.09345 -0.353075 -0.196225 -0.50415 -0.120375 -0.162975 -0.2774 -0.295475 -0.45845 -0.386775 -0.18105 -0.0913 -0.381075 -0.138875 -0.583925 -0.138875 -0.202825 0 -0.402875 0.04755 -0.583925 0.138825 -0.181075 0.091275 -0.3381 0.22375 -0.458475 0.38675 -0.10275 0.151025 -0.16983 0.32335 -0.1962125 0.504 -0.029065 0.209675 -0.0182225 0.422925 0.03196 0.6286 0.1116775 0.48945 0.4134775 1.03885 0.8969275 1.634975 -0.303575 0.33715 -0.573375 0.567025 -0.8399 0.716775 -0.173475 0.1017 -0.3657625 0.167375 -0.56531 0.193075 -0.1919875 0.0233 -0.38676 -0.002175 -0.5662475 -0.074075 -0.17749 -0.0723 -0.33298 -0.189625 -0.451065 -0.34035 -0.1180825 -0.15075 -0.194665 -0.329675 -0.22216 -0.51905 -0.0264475 -0.192475 -0.00394 -0.388525 0.0654475 -0.57005 0.026375 -0.074125 0.05724 -0.1469 0.0954775 -0.23335 0.0540975 -0.122275 0.1115025 -0.246575 0.1670325 -0.366775l0.0074575 -0.01615c0.508355 -1.100775 1.05401 -2.216725 1.6218425 -3.3169l0.0226 -0.0438c0.0578 -0.11215 0.117575 -0.228125 0.1779 -0.340175 0.0577 -0.1155 0.127525 -0.22455 0.208325 -0.3253 0.071575 -0.086475 0.161425 -0.1561 0.2631 -0.2039 0.1017 -0.0478 0.2127 -0.0726 0.325075 -0.0726 0.1124 0 0.223425 0.02475 0.3251 0.07255 0.1017 0.047775 0.19155 0.1174 0.26315 0.20385 0.08085 0.100675 0.1507 0.2097 0.20835 0.325175 0.05975 0.111075 0.119025 0.226 0.176325 0.337125l0.0243 0.047125c0.5678 1.100075 1.113425 2.216 1.62185 3.31695l0.004575 0.0099c0.0565 0.122225 0.1149 0.24855 0.1699 0.372975 0.038275 0.086575 0.0692 0.1594 0.0955 0.23325 0.06935 0.18155 0.091875 0.3776 0.06545 0.5701Z" stroke-width="0.25"></path>
  <path fill="#ff385c" d="M9.853875 13.8707c-0.1841 0 -0.35345 -0.0369 -0.508125 -0.1107 -0.154625 -0.0738 -0.287175 -0.177125 -0.405025 -0.309975 -0.117825 -0.132825 -0.206175 -0.2878 -0.272475 -0.457525 -0.066275 -0.177125 -0.09575 -0.369 -0.09575 -0.57565 0 -0.206625 0.03685 -0.4059 0.1031 -0.583025 0.0663 -0.1771 0.162025 -0.332075 0.279875 -0.4723 0.117825 -0.13285 0.257725 -0.24355 0.41975 -0.31735 0.162 -0.0738 0.3314 -0.1107 0.52285 -0.1107 0.1841 0 0.346125 0.0369 0.4934 0.118075 0.1473 0.073825 0.265125 0.1845 0.36085 0.324725l0.0221 -0.3616h0.6775v2.7822h-0.6775l-0.0221 -0.405875c-0.095725 0.1476 -0.220925 0.265675 -0.38295 0.354225 -0.147275 0.0812 -0.324025 0.125475 -0.5155 0.125475Zm0.176775 -0.6642c0.132525 0 0.25035 -0.0369 0.360825 -0.103325 0.1031 -0.0738 0.1841 -0.169725 0.2504 -0.2878 0.0589 -0.118075 0.08835 -0.2583 0.08835 -0.413275 0 -0.155 -0.02945 -0.2952 -0.08835 -0.4133 -0.058925 -0.118075 -0.1473 -0.214 -0.2504 -0.2878 -0.1031 -0.0738 -0.2283 -0.103325 -0.360825 -0.103325 -0.132575 0 -0.2504 0.0369 -0.360875 0.103325 -0.103075 0.0738 -0.184075 0.169725 -0.250375 0.2878 -0.0589 0.1181 -0.088375 0.2583 -0.088375 0.4133 0 0.154975 0.029475 0.2952 0.088375 0.413275 0.058925 0.118075 0.1473 0.214 0.250375 0.2878 0.110475 0.066425 0.2283 0.103325 0.360875 0.103325Zm2.57745 -2.9446c0 0.081175 -0.014725 0.155 -0.05155 0.214025 -0.036825 0.05905 -0.08835 0.1107 -0.15465 0.1476 -0.066275 0.0369 -0.1399 0.05165 -0.21355 0.05165s-0.147275 -0.01475 -0.213575 -0.05165c-0.066275 -0.0369 -0.117825 -0.08855 -0.154625 -0.1476 -0.03685 -0.066425 -0.051575 -0.13285 -0.051575 -0.214025s0.014725 -0.154975 0.051575 -0.214c0.0368 -0.066425 0.08835 -0.1107 0.154625 -0.1476 0.0663 -0.0369 0.139925 -0.051675 0.213575 -0.051675s0.147275 0.014775 0.21355 0.051675c0.0663 0.0369 0.117825 0.08855 0.15465 0.1476 0.02945 0.059025 0.05155 0.12545 0.05155 0.214ZM11.82015 13.7895V11.007275h0.7364V13.7895h-0.7364Zm2.70265 -2.0516v0.007375c-0.036825 -0.01475 -0.081 -0.02215 -0.11785 -0.029525 -0.04415 -0.007375 -0.081 -0.007375 -0.125175 -0.007375 -0.2062 0 -0.36085 0.059025 -0.46395 0.1845 -0.11045 0.12545 -0.162025 0.302575 -0.162025 0.53135v1.365275h-0.7364V11.007275h0.6775l0.0221 0.420675c0.07365 -0.147625 0.162 -0.258325 0.2872 -0.339475 0.117825 -0.0812 0.25775 -0.1181 0.41975 -0.1181 0.051575 0 0.1031 0.007375 0.1473 0.01475 0.022075 0.0074 0.0368 0.0074 0.05155 0.014775v0.738Zm0.29455 2.0516V9.8634h0.736425v1.498125c0.1031 -0.13285 0.220925 -0.236175 0.368225 -0.31735 0.147275 -0.0738 0.3093 -0.118075 0.4934 -0.118075 0.1841 0 0.353475 0.0369 0.5081 0.1107 0.154675 0.0738 0.287225 0.1771 0.405075 0.30995 0.1178 0.13285 0.206175 0.287825 0.27245 0.457575 0.066275 0.177125 0.095725 0.368975 0.095725 0.575625 0 0.20665 -0.0368 0.4059 -0.103075 0.583 -0.066275 0.177125 -0.162 0.332125 -0.27985 0.472325 -0.117825 0.13285 -0.25775 0.243525 -0.41975 0.31735 -0.162025 0.0738 -0.3314 0.110675 -0.52285 0.110675 -0.184125 0 -0.346125 -0.036875 -0.493425 -0.118075 -0.147275 -0.0738 -0.2651 -0.1845 -0.360825 -0.3247l-0.0221 0.361625 -0.677525 0.00735Zm1.4213 -0.583c0.132575 0 0.2504 -0.0369 0.36085 -0.103325 0.1031 -0.0738 0.1841 -0.169725 0.250375 -0.2878 0.058925 -0.118075 0.088375 -0.2583 0.088375 -0.413275 0 -0.155 -0.02945 -0.2952 -0.088375 -0.4133 -0.066275 -0.118075 -0.147275 -0.214 -0.250375 -0.2878 -0.1031 -0.0738 -0.228275 -0.103325 -0.36085 -0.103325 -0.13255 0 -0.250375 0.0369 -0.36085 0.103325 -0.1031 0.0738 -0.1841 0.169725 -0.250375 0.2878 -0.058925 0.1181 -0.08835 0.2583 -0.08835 0.4133 0 0.154975 0.029425 0.2952 0.08835 0.413275 0.0589 0.118075 0.147275 0.214 0.250375 0.2878 0.110475 0.066425 0.2283 0.103325 0.36085 0.103325Zm1.73795 0.583V11.007275h0.6775l0.0221 0.361625c0.081 -0.13285 0.191475 -0.23615 0.3314 -0.31735 0.1399 -0.081175 0.301925 -0.118075 0.486025 -0.118075 0.2062 0 0.38295 0.05165 0.530225 0.147625 0.15465 0.095925 0.2725 0.23615 0.3535 0.413275 0.081 0.1771 0.125175 0.3911 0.125175 0.63465v1.66785h-0.7364v-1.5719c0 -0.191875 -0.0442 -0.346875 -0.132575 -0.457575 -0.08835 -0.110675 -0.2062 -0.169725 -0.36085 -0.169725 -0.110475 0 -0.2062 0.02215 -0.294575 0.0738 -0.081 0.05165 -0.147275 0.118075 -0.198825 0.214025 -0.05155 0.08855 -0.073625 0.19925 -0.073625 0.30995v1.59405h-0.729075Zm2.894125 0V9.8634h0.736425v1.498125c0.1031 -0.13285 0.220925 -0.236175 0.368225 -0.31735 0.147275 -0.0738 0.3093 -0.118075 0.4934 -0.118075 0.1841 0 0.353475 0.0369 0.508125 0.1107 0.15465 0.0738 0.2872 0.1771 0.405 0.30995 0.11795 0.13285 0.2062 0.287825 0.27255 0.457575 0.06635 0.177125 0.0956 0.368975 0.0956 0.575625 0 0.20665 -0.036625 0.4059 -0.102975 0.583 -0.06635 0.177125 -0.161975 0.332125 -0.279925 0.472325 -0.117775 0.13285 -0.2577 0.243525 -0.419725 0.31735 -0.162 0.0738 -0.331375 0.110675 -0.52285 0.110675 -0.1841 0 -0.3461 -0.036875 -0.4934 -0.118075 -0.147275 -0.0738 -0.2651 -0.1845 -0.360825 -0.3247l-0.0221 0.361625 -0.677525 0.00735Zm1.428675 -0.583c0.132525 0 0.250375 -0.0369 0.360825 -0.103325 0.1031 -0.0738 0.1841 -0.169725 0.2504 -0.2878 0.0589 -0.118075 0.088375 -0.2583 0.088375 -0.413275 0 -0.155 -0.029475 -0.2952 -0.088375 -0.4133 -0.058925 -0.118075 -0.1473 -0.214 -0.2504 -0.2878 -0.1031 -0.0738 -0.2283 -0.103325 -0.360825 -0.103325 -0.132575 0 -0.2504 0.0369 -0.36085 0.103325 -0.1031 0.0738 -0.1841 0.169725 -0.2504 0.2878 -0.066275 0.1181 -0.088375 0.2583 -0.088375 0.4133 0 0.154975 0.029475 0.2952 0.088375 0.413275 0.058925 0.118075 0.1473 0.214 0.2504 0.2878 0.11045 0.066425 0.220925 0.103325 0.36085 0.103325Z" stroke-width="0.25"></path>
</svg>