<svg role="img" viewBox="0 0 24 24" xmlns="http://www.w3.org/2000/svg" id="Asus--Streamline-Simple-Icons" height="24" width="24">
  <desc>
    Asus Streamline Icon: https://streamlinehq.com
  </desc>
  <title>ASUS</title>
  <path d="M23.904 10.788V9.522h-4.656c-0.972 0 -1.41 0.6 -1.482 1.182v0.018h-1.368v1.266h1.362zm-6.144 0.456 -1.368 -0.078v1.458c0 0.456 -0.228 0.594 -1.02 0.594H14.28c-0.654 0 -0.93 -0.186 -0.93 -0.594v-1.596l-1.386 -0.102v1.812h-0.03c-0.078 -0.528 -0.276 -1.14 -1.596 -1.23L6 11.22c0 0.666 0.474 1.062 1.218 1.14l3.024 0.306c0.24 0.018 0.414 0.09 0.414 0.288 0 0.216 -0.18 0.24 -0.456 0.24H5.946V11.22l-1.386 -0.09v3.348h5.646c1.26 0 1.662 -0.654 1.722 -1.2h0.03c0.156 0.864 0.912 1.2 2.19 1.2h1.41c1.494 0 2.202 -0.456 2.202 -1.524zm4.398 0.258 -4.338 -0.258c0 0.666 0.438 1.11 1.182 1.17l3.09 0.24c0.24 0.018 0.384 0.078 0.384 0.276 0 0.186 -0.168 0.258 -0.516 0.258h-4.212v1.29h4.302c1.356 0 1.95 -0.474 1.95 -1.554 0 -0.972 -0.534 -1.338 -1.842 -1.422zm-10.194 -1.98h1.386v1.266h-1.386zM3.798 11.07l-1.506 -0.15L0 14.478h1.686zm7.914 -1.548h-4.23c-0.984 0 -1.416 0.612 -1.518 1.2v-1.2H3.618c-0.33 0 -0.486 0.102 -0.642 0.33l-0.648 0.936h9.384Z" fill="#000000" stroke-width="1"></path>
</svg>