<svg xmlns="http://www.w3.org/2000/svg" fill="none" viewBox="-5 -5 34 34" id="Intel--Streamline-Svg-Logos" height="34" width="34">
  <desc>
    Intel Streamline Icon: https://streamlinehq.com
  </desc>
  <path fill="#00c7fd" d="M2.09972 7.181525H0.25v1.849725h1.84972v-1.849725Z" stroke-width="0.25"></path>
  <path fill="#000000" d="M2.053705 16.818475V10.150275H0.2961425v6.661625h1.7575625v0.006575Zm11.638095 0.065825v-1.632475c-0.256725 0 -0.47395 -0.013175 -0.631925 -0.0395 -0.184325 -0.026325 -0.32255 -0.09215 -0.414725 -0.184325 -0.09215 -0.09215 -0.1514 -0.2238 -0.1843 -0.401525 -0.026325 -0.164575 -0.0395 -0.3818 -0.0395 -0.6451v-2.323675h1.27045v-1.507425h-1.27045V7.556725h-1.75755v6.4444c0 0.54635 0.046075 1.007125 0.138225 1.375775 0.09215 0.362025 0.25015 0.65825 0.467375 0.88205 0.217225 0.223825 0.50685 0.3818 0.855725 0.48055 0.355475 0.098725 0.8031 0.1448 1.336275 0.1448h0.2304Zm10.058275 -0.065825V7.043275H21.9925v9.7752h1.757575ZM8.97205 10.80855c-0.4871 -0.526625 -1.1717 -0.789925 -2.040625 -0.789925 -0.421275 0 -0.80965 0.085575 -1.15195 0.256725 -0.348875 0.17115 -0.638525 0.408125 -0.8755 0.710925l-0.09215 0.125075v-0.961075h-1.731225v6.661625H4.825V13.26385v0.243575l0 -0.1185c0.01975 -0.62535 0.17115 -1.086125 0.460775 -1.38235 0.309375 -0.31595 0.6846 -0.47395 1.112475 -0.47395 0.50685 0 0.895225 0.158 1.15195 0.4608 0.25015 0.3028 0.3818 0.73065 0.3818 1.277025v3.54145h1.770725V13.033475c0.006575 -0.9479 -0.24355 -1.698325 -0.730675 -2.224925ZM21.0841 13.4745c0 -0.480525 -0.085575 -0.92815 -0.25015 -1.349425 -0.17115 -0.414725 -0.408125 -0.78335 -0.704325 -1.0993 -0.3028 -0.315975 -0.66485 -0.559525 -1.08615 -0.737275 -0.421275 -0.177725 -0.88865 -0.2633 -1.395525 -0.2633 -0.480525 0 -0.934725 0.092175 -1.356 0.2699 -0.4213 0.1843 -0.789925 0.427875 -1.0993 0.73725 -0.3094 0.309375 -0.559525 0.678 -0.737275 1.0993 -0.1843 0.4213 -0.269875 0.8755 -0.269875 1.356025 0 0.480525 0.085575 0.934725 0.256725 1.356025 0.17115 0.421275 0.4147 0.7899 0.7175 1.0993 0.3028 0.309375 0.678025 0.559525 1.112475 0.73725 0.43445 0.184325 0.914975 0.276475 1.428425 0.276475 1.487675 0 2.40925 -0.678025 2.962175 -1.30995l-1.26385 -0.961075c-0.263325 0.315975 -0.89525 0.74385 -1.68515 0.74385 -0.4937 0 -0.901825 -0.1119 -1.211225 -0.3423 -0.309375 -0.2238 -0.520025 -0.539775 -0.631925 -0.92815l-0.01975 -0.05925h5.2332V13.4745Zm-5.220025 -0.612175c0 -0.487125 0.559525 -1.336275 1.76415 -1.34285 1.2046 0 1.770725 0.84915 1.770725 1.336275l-3.534875 0.006575Z" stroke-width="0.25"></path>
</svg>