<svg xmlns="http://www.w3.org/2000/svg" fill="none" viewBox="0 0 96 96" id="Meta--Streamline-Svg-Logos" height="24" width="24">
  <desc>
    Meta Streamline Icon: https://streamlinehq.com
  </desc>
  <path fill="#0081fb" d="M4.07979 51.0202c0 1.0888.23897 1.9246.55131 2.4303.40951.6624 1.02031.943 1.64301.943.80317 0 1.53792-.1993 2.95386-2.1576 1.13433-1.5697 2.47093-3.7729 3.37033-5.1542l1.523-2.34c1.058-1.6252 2.2826-3.4318 3.6867-4.6564 1.1462-.9995 2.3827-1.5548 3.6271-1.5548 2.0892 0 4.0793 1.2107 5.6023 3.4814 1.6668 2.4868 2.4759 5.6192 2.4759 8.8517 0 1.9216-.3787 3.3336-1.0233 4.4491-.6227 1.0788-1.8363 2.1566-3.878 2.1566v-3.0758c1.7482 0 2.1845-1.6063 2.1845-3.4447 0-2.6197-.6108-5.5269-1.9564-7.6043-.9549-1.4734-2.1923-2.3738-3.5537-2.3738-1.4725 0-2.6574 1.1106-3.9891 3.0907-.708 1.0521-1.4348 2.3342-2.2508 3.7809l-.8984 1.5914c-1.8046 3.1998-2.2617 3.9286-3.1641 5.1314-1.58151 2.106-2.93202 2.9042-4.70989 2.9042-2.10905 0-3.4427-.9132-4.26867-2.2895C1.33118 54.0584 1 52.5869 1 50.9102l3.07979.11Z"></path>
  <path fill="url(#a)" d="M3.42822 42.229c1.41199-2.1764 3.44964-3.6985 5.78675-3.6985 1.35353 0 2.69903.4006 4.10403 1.5478 1.537 1.2544 3.175 3.3198 5.2186 6.7238l.7328 1.2216c1.7689 2.9469 2.7754 4.463 3.3644 5.178.7575.9181 1.288 1.1918 1.9771 1.1918 1.7482 0 2.1844-1.6063 2.1844-3.4447l2.7169-.0852c0 1.9216-.3788 3.3336-1.0233 4.4491-.6227 1.0788-1.8363 2.1566-3.878 2.1566-1.2692 0-2.3936-.2756-3.637-1.4486-.9559-.9004-2.0734-2.4998-2.9331-3.9375l-2.5572-4.2717c-1.2831-2.1437-2.46-3.7421-3.1413-4.466-.7327-.7783-1.6747-1.7183-3.1779-1.7183-1.21665 0-2.24986.8537-3.1145 2.1596L3.42822 42.229Z"></path>
  <path fill="url(#b)" d="M9.16551 41.6272c-1.21665 0-2.24986.8537-3.1145 2.1596-1.22259 1.8453-1.97122 4.5939-1.97122 7.2334 0 1.0888.23897 1.9246.55131 2.4303l-2.62566 1.7293C1.33118 54.0584 1 52.5869 1 50.9102c0-3.0491.83688-6.227 2.42833-8.6812 1.41199-2.1764 3.44964-3.6985 5.78675-3.6985l-.04957 3.0967Z"></path>
  <path fill="#192830" d="M35.5 39.1294h3.5627l6.0574 10.9587 6.0585-10.9587h3.4853v18.0067h-2.9063V43.3356l-5.3127 9.5567h-2.7268l-5.3118-9.5567v13.8005H35.5V39.1294Zm28.2704 6.7139c-2.0843 0-3.3396 1.5686-3.64 3.5111h7.0738c-.1458-2.001-1.3-3.5111-3.4338-3.5111Zm-6.5215 4.6177c0-4.0873 2.6415-7.0619 6.5721-7.0619 3.8661 0 6.1744 2.937 6.1744 7.28v.7982h-9.865c.35 2.113 1.7521 3.5369 4.0128 3.5369 1.8037 0 2.9311-.5503 4-1.5567l1.5438 1.8909c-1.4546 1.3376-3.3048 2.109-5.6469 2.109-4.2548 0-6.7912-3.1026-6.7912-6.9964Zm16.2705-4.3599h-2.6752v-2.3798h2.6752v-3.9355h2.8042v3.9355h4.0644v2.3798h-4.0644v6.0316c0 2.0595.6584 2.7913 2.2766 2.7913.7387 0 1.1621-.0635 1.7878-.1676v2.354c-.7794.2201-1.5231.3212-2.3282.3212-3.0272 0-4.5404-1.6539-4.5404-4.9647v-6.3658Zm18.6761 2.3143c-.5632-1.4219-1.8195-2.469-3.6658-2.469-2.3996 0-3.9355 1.7025-3.9355 4.4759 0 2.704 1.4139 4.4888 3.8205 4.4888 1.8919 0 3.2424-1.1006 3.7808-2.47v-4.0257Zm2.8041 8.7207H92.247v-1.878c-.7694 1.1056-2.1695 2.1993-4.4372 2.1993-3.647 0-6.0842-3.053-6.0842-7.0351 0-4.0198 2.4957-7.0232 6.2389-7.0232 1.8502 0 3.3019.7397 4.2825 2.0455v-1.7233h2.7526v13.4148Z"></path>
  <defs>
    <linearGradient id="a" x1="365.447" x2="2326.38" y1="1097.85" y2="1196.89" gradientUnits="userSpaceOnUse">
      <stop stop-color="#0064e1"></stop>
      <stop offset=".4" stop-color="#0064e1"></stop>
      <stop offset=".83" stop-color="#0073ee"></stop>
      <stop offset="1" stop-color="#0082fb"></stop>
    </linearGradient>
    <linearGradient id="b" x1="447.203" x2="447.203" y1="1416.8" y2="692.961" gradientUnits="userSpaceOnUse">
      <stop stop-color="#0082fb"></stop>
      <stop offset="1" stop-color="#0064e0"></stop>
    </linearGradient>
  </defs>
</svg>