<svg xmlns="http://www.w3.org/2000/svg" fill="none" viewBox="0 0 24 24" id="Intel--Streamline-Svg-Logos" height="24" width="24">
  <desc>
    Intel Streamline Icon: https://streamlinehq.com
  </desc>
  <path fill="#ea1b22" d="M10.395125 12.460075h1.552825l-0.821075 -1.321 -1.506975 2.388425h-0.68585l1.832975 -2.869025c0.0797 -0.1159 0.212525 -0.18595 0.35985 -0.18595 0.142475 0 0.2753 0.067625 0.352575 0.181125L13.319675 13.5275h-0.68585l-0.3236 -0.533725h-1.572175l-0.342925 -0.5337Zm7.124225 0.5337v-2.49225h-0.582025v2.736175c0 0.07485 0.029 0.1473 0.084525 0.20285 0.05555 0.05555 0.1304 0.08695 0.212525 0.08695h2.654075l0.342925 -0.533725H17.51935ZM7.890775 12.547c0.565125 0 1.023975 -0.456425 1.023975 -1.021525 0 -0.565125 -0.45885 -1.02395 -1.023975 -1.02395H5.34465V13.5275h0.581775v-2.492275h1.925725c0.270475 0 0.487825 0.219775 0.487825 0.49025s-0.21735 0.490225 -0.487825 0.490225l-1.64075 -0.0024 1.737325 1.5142h0.845275l-1.16885 -0.9805h0.265625ZM1.763245 13.5275C0.9278925 13.5275 0.25 12.8513 0.25 12.0157c0 -0.835575 0.6778925 -1.514175 1.513245 -1.514175h1.75883c0.835575 0 1.512975 0.6786 1.512975 1.514175 0 0.8356 -0.6774 1.5118 -1.512975 1.5118H1.763245Zm1.719705 -0.533725c0.5412 0 0.979525 -0.4371 0.979525 -0.978075 0 -0.54095 -0.438325 -0.980475 -0.979525 -0.980475H1.8021175c-0.5409575 0 -0.9795275 0.439525 -0.9795275 0.980475 0 0.540975 0.43857 0.978075 0.9795275 0.978075h1.6808325ZM14.5344 13.5275c-0.835575 0 -1.514175 -0.6762 -1.514175 -1.5118 0 -0.835575 0.6786 -1.514175 1.514175 -1.514175h2.088975l-0.3405 0.5337h-1.709825c-0.54095 0 -0.980475 0.439525 -0.980475 0.980475 0 0.540975 0.439525 0.978075 0.980475 0.978075h2.098625L16.32875 13.5275h-1.79435Zm7.116975 -0.533725c-0.446775 0 -0.825925 -0.29945 -0.94185 -0.712425h2.48745l0.342925 -0.5337H20.709525c0.115925 -0.41055 0.495075 -0.712425 0.94185 -0.712425h1.7074l0.34535 -0.5337H21.61275c-0.8356 0 -1.5142 0.6786 -1.5142 1.514175 0 0.8356 0.6786 1.5118 1.5142 1.5118h1.794325L23.75 12.993775h-2.098625Z" stroke-width="0.25"></path>
</svg>